<mxfile host="Electron" agent="Mozilla/5.0 (Windows NT 10.0; Win64; x64) AppleWebKit/537.36 (KHTML, like Gecko) draw.io/28.1.2 Chrome/138.0.7204.243 Electron/37.4.0 Safari/537.36" version="28.1.2">
  <diagram name="Page-1" id="KdH9_nPLmIyCISXd6bt1">
    <mxGraphModel dx="908" dy="866" grid="1" gridSize="10" guides="1" tooltips="1" connect="1" arrows="1" fold="1" page="1" pageScale="1" pageWidth="850" pageHeight="1100" math="0" shadow="0">
      <root>
        <mxCell id="0" />
        <mxCell id="1" parent="0" />
        <mxCell id="tdDN1sZcC-09edrLyPi8-10" value="&lt;span style=&quot;color: rgb(204, 204, 204); font-family: &amp;quot;Segoe WPC&amp;quot;, &amp;quot;Segoe UI&amp;quot;, sans-serif; font-size: 13px; font-weight: 400; text-align: left; text-wrap-mode: wrap; background-color: rgb(24, 24, 24);&quot;&gt;olist_orders_dataset&lt;/span&gt;" style="shape=table;startSize=30;container=1;collapsible=1;childLayout=tableLayout;fixedRows=1;rowLines=0;fontStyle=1;align=center;resizeLast=1;html=1;" vertex="1" parent="1">
          <mxGeometry x="20" y="120" width="180" height="90" as="geometry" />
        </mxCell>
        <mxCell id="tdDN1sZcC-09edrLyPi8-11" value="" style="shape=tableRow;horizontal=0;startSize=0;swimlaneHead=0;swimlaneBody=0;fillColor=none;collapsible=0;dropTarget=0;points=[[0,0.5],[1,0.5]];portConstraint=eastwest;top=0;left=0;right=0;bottom=1;" vertex="1" parent="tdDN1sZcC-09edrLyPi8-10">
          <mxGeometry y="30" width="180" height="30" as="geometry" />
        </mxCell>
        <mxCell id="tdDN1sZcC-09edrLyPi8-12" value="PK" style="shape=partialRectangle;connectable=0;fillColor=none;top=0;left=0;bottom=0;right=0;fontStyle=1;overflow=hidden;whiteSpace=wrap;html=1;" vertex="1" parent="tdDN1sZcC-09edrLyPi8-11">
          <mxGeometry width="40" height="30" as="geometry">
            <mxRectangle width="40" height="30" as="alternateBounds" />
          </mxGeometry>
        </mxCell>
        <mxCell id="tdDN1sZcC-09edrLyPi8-13" value="&lt;span style=&quot;color: rgb(204, 204, 204); font-family: &amp;quot;Segoe WPC&amp;quot;, &amp;quot;Segoe UI&amp;quot;, sans-serif; font-size: 13px; font-weight: 400; background-color: rgb(24, 24, 24);&quot;&gt;order_id&lt;/span&gt;" style="shape=partialRectangle;connectable=0;fillColor=none;top=0;left=0;bottom=0;right=0;align=left;spacingLeft=6;fontStyle=5;overflow=hidden;whiteSpace=wrap;html=1;" vertex="1" parent="tdDN1sZcC-09edrLyPi8-11">
          <mxGeometry x="40" width="140" height="30" as="geometry">
            <mxRectangle width="140" height="30" as="alternateBounds" />
          </mxGeometry>
        </mxCell>
        <mxCell id="tdDN1sZcC-09edrLyPi8-14" value="" style="shape=tableRow;horizontal=0;startSize=0;swimlaneHead=0;swimlaneBody=0;fillColor=none;collapsible=0;dropTarget=0;points=[[0,0.5],[1,0.5]];portConstraint=eastwest;top=0;left=0;right=0;bottom=0;" vertex="1" parent="tdDN1sZcC-09edrLyPi8-10">
          <mxGeometry y="60" width="180" height="30" as="geometry" />
        </mxCell>
        <mxCell id="tdDN1sZcC-09edrLyPi8-15" value="" style="shape=partialRectangle;connectable=0;fillColor=none;top=0;left=0;bottom=0;right=0;editable=1;overflow=hidden;whiteSpace=wrap;html=1;" vertex="1" parent="tdDN1sZcC-09edrLyPi8-14">
          <mxGeometry width="40" height="30" as="geometry">
            <mxRectangle width="40" height="30" as="alternateBounds" />
          </mxGeometry>
        </mxCell>
        <mxCell id="tdDN1sZcC-09edrLyPi8-16" value="&lt;span style=&quot;color: rgb(204, 204, 204); font-family: &amp;quot;Segoe WPC&amp;quot;, &amp;quot;Segoe UI&amp;quot;, sans-serif; font-size: 13px; background-color: rgb(24, 24, 24);&quot;&gt;customer_id&lt;/span&gt;" style="shape=partialRectangle;connectable=0;fillColor=none;top=0;left=0;bottom=0;right=0;align=left;spacingLeft=6;overflow=hidden;whiteSpace=wrap;html=1;" vertex="1" parent="tdDN1sZcC-09edrLyPi8-14">
          <mxGeometry x="40" width="140" height="30" as="geometry">
            <mxRectangle width="140" height="30" as="alternateBounds" />
          </mxGeometry>
        </mxCell>
        <mxCell id="tdDN1sZcC-09edrLyPi8-23" value="&lt;span style=&quot;color: rgb(204, 204, 204); font-family: &amp;quot;Segoe WPC&amp;quot;, &amp;quot;Segoe UI&amp;quot;, sans-serif; font-size: 13px; font-weight: 400; text-align: left; text-wrap-mode: wrap; background-color: rgb(24, 24, 24);&quot;&gt;olist_customers_dataset&lt;/span&gt;" style="shape=table;startSize=30;container=1;collapsible=1;childLayout=tableLayout;fixedRows=1;rowLines=0;fontStyle=1;align=center;resizeLast=1;html=1;" vertex="1" parent="1">
          <mxGeometry x="10" y="240" width="200" height="120" as="geometry" />
        </mxCell>
        <mxCell id="tdDN1sZcC-09edrLyPi8-24" value="" style="shape=tableRow;horizontal=0;startSize=0;swimlaneHead=0;swimlaneBody=0;fillColor=none;collapsible=0;dropTarget=0;points=[[0,0.5],[1,0.5]];portConstraint=eastwest;top=0;left=0;right=0;bottom=1;" vertex="1" parent="tdDN1sZcC-09edrLyPi8-23">
          <mxGeometry y="30" width="200" height="30" as="geometry" />
        </mxCell>
        <mxCell id="tdDN1sZcC-09edrLyPi8-25" value="PK" style="shape=partialRectangle;connectable=0;fillColor=none;top=0;left=0;bottom=0;right=0;fontStyle=1;overflow=hidden;whiteSpace=wrap;html=1;" vertex="1" parent="tdDN1sZcC-09edrLyPi8-24">
          <mxGeometry width="30" height="30" as="geometry">
            <mxRectangle width="30" height="30" as="alternateBounds" />
          </mxGeometry>
        </mxCell>
        <mxCell id="tdDN1sZcC-09edrLyPi8-26" value="&lt;span style=&quot;color: rgb(204, 204, 204); font-family: &amp;quot;Segoe WPC&amp;quot;, &amp;quot;Segoe UI&amp;quot;, sans-serif; font-size: 13px; font-weight: 400; background-color: rgb(24, 24, 24);&quot;&gt;customer_id&lt;/span&gt;" style="shape=partialRectangle;connectable=0;fillColor=none;top=0;left=0;bottom=0;right=0;align=left;spacingLeft=6;fontStyle=5;overflow=hidden;whiteSpace=wrap;html=1;" vertex="1" parent="tdDN1sZcC-09edrLyPi8-24">
          <mxGeometry x="30" width="170" height="30" as="geometry">
            <mxRectangle width="170" height="30" as="alternateBounds" />
          </mxGeometry>
        </mxCell>
        <mxCell id="tdDN1sZcC-09edrLyPi8-27" value="" style="shape=tableRow;horizontal=0;startSize=0;swimlaneHead=0;swimlaneBody=0;fillColor=none;collapsible=0;dropTarget=0;points=[[0,0.5],[1,0.5]];portConstraint=eastwest;top=0;left=0;right=0;bottom=0;" vertex="1" parent="tdDN1sZcC-09edrLyPi8-23">
          <mxGeometry y="60" width="200" height="30" as="geometry" />
        </mxCell>
        <mxCell id="tdDN1sZcC-09edrLyPi8-28" value="" style="shape=partialRectangle;connectable=0;fillColor=none;top=0;left=0;bottom=0;right=0;editable=1;overflow=hidden;whiteSpace=wrap;html=1;" vertex="1" parent="tdDN1sZcC-09edrLyPi8-27">
          <mxGeometry width="30" height="30" as="geometry">
            <mxRectangle width="30" height="30" as="alternateBounds" />
          </mxGeometry>
        </mxCell>
        <mxCell id="tdDN1sZcC-09edrLyPi8-29" value="&lt;span style=&quot;color: rgb(204, 204, 204); font-family: &amp;quot;Segoe WPC&amp;quot;, &amp;quot;Segoe UI&amp;quot;, sans-serif; font-size: 13px; background-color: rgb(24, 24, 24);&quot;&gt;customer_unique_id&lt;/span&gt;" style="shape=partialRectangle;connectable=0;fillColor=none;top=0;left=0;bottom=0;right=0;align=left;spacingLeft=6;overflow=hidden;whiteSpace=wrap;html=1;" vertex="1" parent="tdDN1sZcC-09edrLyPi8-27">
          <mxGeometry x="30" width="170" height="30" as="geometry">
            <mxRectangle width="170" height="30" as="alternateBounds" />
          </mxGeometry>
        </mxCell>
        <mxCell id="tdDN1sZcC-09edrLyPi8-30" value="" style="shape=tableRow;horizontal=0;startSize=0;swimlaneHead=0;swimlaneBody=0;fillColor=none;collapsible=0;dropTarget=0;points=[[0,0.5],[1,0.5]];portConstraint=eastwest;top=0;left=0;right=0;bottom=0;" vertex="1" parent="tdDN1sZcC-09edrLyPi8-23">
          <mxGeometry y="90" width="200" height="30" as="geometry" />
        </mxCell>
        <mxCell id="tdDN1sZcC-09edrLyPi8-31" value="" style="shape=partialRectangle;connectable=0;fillColor=none;top=0;left=0;bottom=0;right=0;editable=1;overflow=hidden;whiteSpace=wrap;html=1;" vertex="1" parent="tdDN1sZcC-09edrLyPi8-30">
          <mxGeometry width="30" height="30" as="geometry">
            <mxRectangle width="30" height="30" as="alternateBounds" />
          </mxGeometry>
        </mxCell>
        <mxCell id="tdDN1sZcC-09edrLyPi8-32" value="&lt;span style=&quot;color: rgb(204, 204, 204); font-family: &amp;quot;Segoe WPC&amp;quot;, &amp;quot;Segoe UI&amp;quot;, sans-serif; font-size: 13px; background-color: rgb(24, 24, 24);&quot;&gt;customer_zip_code_prefix&lt;/span&gt;" style="shape=partialRectangle;connectable=0;fillColor=none;top=0;left=0;bottom=0;right=0;align=left;spacingLeft=6;overflow=hidden;whiteSpace=wrap;html=1;" vertex="1" parent="tdDN1sZcC-09edrLyPi8-30">
          <mxGeometry x="30" width="170" height="30" as="geometry">
            <mxRectangle width="170" height="30" as="alternateBounds" />
          </mxGeometry>
        </mxCell>
        <mxCell id="tdDN1sZcC-09edrLyPi8-37" value="&lt;span style=&quot;color: rgb(204, 204, 204); font-family: &amp;quot;Segoe WPC&amp;quot;, &amp;quot;Segoe UI&amp;quot;, sans-serif; font-size: 13px; font-weight: 400; text-align: left; text-wrap-mode: wrap; background-color: rgb(24, 24, 24);&quot;&gt;olist_order_items_dataset&lt;/span&gt;" style="shape=table;startSize=30;container=1;collapsible=1;childLayout=tableLayout;fixedRows=1;rowLines=0;fontStyle=1;align=center;resizeLast=1;html=1;" vertex="1" parent="1">
          <mxGeometry x="620" y="240" width="180" height="150" as="geometry" />
        </mxCell>
        <mxCell id="tdDN1sZcC-09edrLyPi8-38" value="" style="shape=tableRow;horizontal=0;startSize=0;swimlaneHead=0;swimlaneBody=0;fillColor=none;collapsible=0;dropTarget=0;points=[[0,0.5],[1,0.5]];portConstraint=eastwest;top=0;left=0;right=0;bottom=1;" vertex="1" parent="tdDN1sZcC-09edrLyPi8-37">
          <mxGeometry y="30" width="180" height="30" as="geometry" />
        </mxCell>
        <mxCell id="tdDN1sZcC-09edrLyPi8-39" value="PK" style="shape=partialRectangle;connectable=0;fillColor=none;top=0;left=0;bottom=0;right=0;fontStyle=1;overflow=hidden;whiteSpace=wrap;html=1;" vertex="1" parent="tdDN1sZcC-09edrLyPi8-38">
          <mxGeometry width="30" height="30" as="geometry">
            <mxRectangle width="30" height="30" as="alternateBounds" />
          </mxGeometry>
        </mxCell>
        <mxCell id="tdDN1sZcC-09edrLyPi8-40" value="&lt;span style=&quot;color: rgb(204, 204, 204); font-family: &amp;quot;Segoe WPC&amp;quot;, &amp;quot;Segoe UI&amp;quot;, sans-serif; font-size: 13px; font-weight: 400; background-color: rgb(24, 24, 24);&quot;&gt;order_item_id&lt;/span&gt;" style="shape=partialRectangle;connectable=0;fillColor=none;top=0;left=0;bottom=0;right=0;align=left;spacingLeft=6;fontStyle=5;overflow=hidden;whiteSpace=wrap;html=1;" vertex="1" parent="tdDN1sZcC-09edrLyPi8-38">
          <mxGeometry x="30" width="150" height="30" as="geometry">
            <mxRectangle width="150" height="30" as="alternateBounds" />
          </mxGeometry>
        </mxCell>
        <mxCell id="tdDN1sZcC-09edrLyPi8-41" value="" style="shape=tableRow;horizontal=0;startSize=0;swimlaneHead=0;swimlaneBody=0;fillColor=none;collapsible=0;dropTarget=0;points=[[0,0.5],[1,0.5]];portConstraint=eastwest;top=0;left=0;right=0;bottom=0;" vertex="1" parent="tdDN1sZcC-09edrLyPi8-37">
          <mxGeometry y="60" width="180" height="30" as="geometry" />
        </mxCell>
        <mxCell id="tdDN1sZcC-09edrLyPi8-42" value="" style="shape=partialRectangle;connectable=0;fillColor=none;top=0;left=0;bottom=0;right=0;editable=1;overflow=hidden;whiteSpace=wrap;html=1;" vertex="1" parent="tdDN1sZcC-09edrLyPi8-41">
          <mxGeometry width="30" height="30" as="geometry">
            <mxRectangle width="30" height="30" as="alternateBounds" />
          </mxGeometry>
        </mxCell>
        <mxCell id="tdDN1sZcC-09edrLyPi8-43" value="&lt;span style=&quot;color: rgb(204, 204, 204); font-family: &amp;quot;Segoe WPC&amp;quot;, &amp;quot;Segoe UI&amp;quot;, sans-serif; font-size: 13px; background-color: rgb(24, 24, 24);&quot;&gt;order_id&lt;/span&gt;" style="shape=partialRectangle;connectable=0;fillColor=none;top=0;left=0;bottom=0;right=0;align=left;spacingLeft=6;overflow=hidden;whiteSpace=wrap;html=1;" vertex="1" parent="tdDN1sZcC-09edrLyPi8-41">
          <mxGeometry x="30" width="150" height="30" as="geometry">
            <mxRectangle width="150" height="30" as="alternateBounds" />
          </mxGeometry>
        </mxCell>
        <mxCell id="tdDN1sZcC-09edrLyPi8-44" value="" style="shape=tableRow;horizontal=0;startSize=0;swimlaneHead=0;swimlaneBody=0;fillColor=none;collapsible=0;dropTarget=0;points=[[0,0.5],[1,0.5]];portConstraint=eastwest;top=0;left=0;right=0;bottom=0;" vertex="1" parent="tdDN1sZcC-09edrLyPi8-37">
          <mxGeometry y="90" width="180" height="30" as="geometry" />
        </mxCell>
        <mxCell id="tdDN1sZcC-09edrLyPi8-45" value="" style="shape=partialRectangle;connectable=0;fillColor=none;top=0;left=0;bottom=0;right=0;editable=1;overflow=hidden;whiteSpace=wrap;html=1;" vertex="1" parent="tdDN1sZcC-09edrLyPi8-44">
          <mxGeometry width="30" height="30" as="geometry">
            <mxRectangle width="30" height="30" as="alternateBounds" />
          </mxGeometry>
        </mxCell>
        <mxCell id="tdDN1sZcC-09edrLyPi8-46" value="&lt;span style=&quot;color: rgb(204, 204, 204); font-family: &amp;quot;Segoe WPC&amp;quot;, &amp;quot;Segoe UI&amp;quot;, sans-serif; font-size: 13px; background-color: rgb(24, 24, 24);&quot;&gt;product_id&lt;/span&gt;" style="shape=partialRectangle;connectable=0;fillColor=none;top=0;left=0;bottom=0;right=0;align=left;spacingLeft=6;overflow=hidden;whiteSpace=wrap;html=1;" vertex="1" parent="tdDN1sZcC-09edrLyPi8-44">
          <mxGeometry x="30" width="150" height="30" as="geometry">
            <mxRectangle width="150" height="30" as="alternateBounds" />
          </mxGeometry>
        </mxCell>
        <mxCell id="tdDN1sZcC-09edrLyPi8-47" value="" style="shape=tableRow;horizontal=0;startSize=0;swimlaneHead=0;swimlaneBody=0;fillColor=none;collapsible=0;dropTarget=0;points=[[0,0.5],[1,0.5]];portConstraint=eastwest;top=0;left=0;right=0;bottom=0;" vertex="1" parent="tdDN1sZcC-09edrLyPi8-37">
          <mxGeometry y="120" width="180" height="30" as="geometry" />
        </mxCell>
        <mxCell id="tdDN1sZcC-09edrLyPi8-48" value="" style="shape=partialRectangle;connectable=0;fillColor=none;top=0;left=0;bottom=0;right=0;editable=1;overflow=hidden;whiteSpace=wrap;html=1;" vertex="1" parent="tdDN1sZcC-09edrLyPi8-47">
          <mxGeometry width="30" height="30" as="geometry">
            <mxRectangle width="30" height="30" as="alternateBounds" />
          </mxGeometry>
        </mxCell>
        <mxCell id="tdDN1sZcC-09edrLyPi8-49" value="&lt;span style=&quot;color: rgb(204, 204, 204); font-family: &amp;quot;Segoe WPC&amp;quot;, &amp;quot;Segoe UI&amp;quot;, sans-serif; font-size: 13px; font-style: normal; font-variant-ligatures: normal; font-variant-caps: normal; font-weight: 400; letter-spacing: normal; orphans: 2; text-align: left; text-indent: 0px; text-transform: none; widows: 2; word-spacing: 0px; -webkit-text-stroke-width: 0px; white-space: normal; background-color: rgb(24, 24, 24); text-decoration-thickness: initial; text-decoration-style: initial; text-decoration-color: initial; display: inline !important; float: none;&quot;&gt;seller_id&lt;/span&gt;&lt;div&gt;&lt;br/&gt;&lt;/div&gt;" style="shape=partialRectangle;connectable=0;fillColor=none;top=0;left=0;bottom=0;right=0;align=left;spacingLeft=6;overflow=hidden;whiteSpace=wrap;html=1;" vertex="1" parent="tdDN1sZcC-09edrLyPi8-47">
          <mxGeometry x="30" width="150" height="30" as="geometry">
            <mxRectangle width="150" height="30" as="alternateBounds" />
          </mxGeometry>
        </mxCell>
        <mxCell id="tdDN1sZcC-09edrLyPi8-55" value="&lt;span style=&quot;color: rgb(204, 204, 204); font-family: &amp;quot;Segoe WPC&amp;quot;, &amp;quot;Segoe UI&amp;quot;, sans-serif; font-size: 13px; font-weight: 400; text-align: left; text-wrap-mode: wrap; background-color: rgb(24, 24, 24);&quot;&gt;olist_order_payments_dataset&lt;/span&gt;" style="shape=table;startSize=30;container=1;collapsible=1;childLayout=tableLayout;fixedRows=1;rowLines=0;fontStyle=1;align=center;resizeLast=1;html=1;" vertex="1" parent="1">
          <mxGeometry x="540" y="50" width="230" height="60" as="geometry" />
        </mxCell>
        <mxCell id="tdDN1sZcC-09edrLyPi8-59" value="" style="shape=tableRow;horizontal=0;startSize=0;swimlaneHead=0;swimlaneBody=0;fillColor=none;collapsible=0;dropTarget=0;points=[[0,0.5],[1,0.5]];portConstraint=eastwest;top=0;left=0;right=0;bottom=0;" vertex="1" parent="tdDN1sZcC-09edrLyPi8-55">
          <mxGeometry y="30" width="230" height="30" as="geometry" />
        </mxCell>
        <mxCell id="tdDN1sZcC-09edrLyPi8-60" value="" style="shape=partialRectangle;connectable=0;fillColor=none;top=0;left=0;bottom=0;right=0;editable=1;overflow=hidden;whiteSpace=wrap;html=1;" vertex="1" parent="tdDN1sZcC-09edrLyPi8-59">
          <mxGeometry width="20" height="30" as="geometry">
            <mxRectangle width="20" height="30" as="alternateBounds" />
          </mxGeometry>
        </mxCell>
        <mxCell id="tdDN1sZcC-09edrLyPi8-61" value="&lt;span style=&quot;color: rgb(204, 204, 204); font-family: &amp;quot;Segoe WPC&amp;quot;, &amp;quot;Segoe UI&amp;quot;, sans-serif; font-size: 13px; background-color: rgb(24, 24, 24);&quot;&gt;order_id&amp;nbsp;&lt;/span&gt;" style="shape=partialRectangle;connectable=0;fillColor=none;top=0;left=0;bottom=0;right=0;align=left;spacingLeft=6;overflow=hidden;whiteSpace=wrap;html=1;" vertex="1" parent="tdDN1sZcC-09edrLyPi8-59">
          <mxGeometry x="20" width="210" height="30" as="geometry">
            <mxRectangle width="210" height="30" as="alternateBounds" />
          </mxGeometry>
        </mxCell>
        <mxCell id="tdDN1sZcC-09edrLyPi8-68" value="&lt;span style=&quot;color: rgb(204, 204, 204); font-family: &amp;quot;Segoe WPC&amp;quot;, &amp;quot;Segoe UI&amp;quot;, sans-serif; font-size: 13px; font-weight: 400; text-align: left; text-wrap-mode: wrap; background-color: rgb(24, 24, 24);&quot;&gt;olist_order_reviews_dataset&lt;/span&gt;" style="shape=table;startSize=30;container=1;collapsible=1;childLayout=tableLayout;fixedRows=1;rowLines=0;fontStyle=1;align=center;resizeLast=1;html=1;" vertex="1" parent="1">
          <mxGeometry x="550" y="135" width="230" height="60" as="geometry" />
        </mxCell>
        <mxCell id="tdDN1sZcC-09edrLyPi8-72" value="" style="shape=tableRow;horizontal=0;startSize=0;swimlaneHead=0;swimlaneBody=0;fillColor=none;collapsible=0;dropTarget=0;points=[[0,0.5],[1,0.5]];portConstraint=eastwest;top=0;left=0;right=0;bottom=0;" vertex="1" parent="tdDN1sZcC-09edrLyPi8-68">
          <mxGeometry y="30" width="230" height="30" as="geometry" />
        </mxCell>
        <mxCell id="tdDN1sZcC-09edrLyPi8-73" value="" style="shape=partialRectangle;connectable=0;fillColor=none;top=0;left=0;bottom=0;right=0;editable=1;overflow=hidden;whiteSpace=wrap;html=1;" vertex="1" parent="tdDN1sZcC-09edrLyPi8-72">
          <mxGeometry width="30" height="30" as="geometry">
            <mxRectangle width="30" height="30" as="alternateBounds" />
          </mxGeometry>
        </mxCell>
        <mxCell id="tdDN1sZcC-09edrLyPi8-74" value="&lt;span style=&quot;color: rgb(204, 204, 204); font-family: &amp;quot;Segoe WPC&amp;quot;, &amp;quot;Segoe UI&amp;quot;, sans-serif; font-size: 13px; background-color: rgb(24, 24, 24);&quot;&gt;order_id&lt;/span&gt;" style="shape=partialRectangle;connectable=0;fillColor=none;top=0;left=0;bottom=0;right=0;align=left;spacingLeft=6;overflow=hidden;whiteSpace=wrap;html=1;" vertex="1" parent="tdDN1sZcC-09edrLyPi8-72">
          <mxGeometry x="30" width="200" height="30" as="geometry">
            <mxRectangle width="200" height="30" as="alternateBounds" />
          </mxGeometry>
        </mxCell>
        <mxCell id="tdDN1sZcC-09edrLyPi8-81" value="&lt;span style=&quot;color: rgb(204, 204, 204); font-family: &amp;quot;Segoe WPC&amp;quot;, &amp;quot;Segoe UI&amp;quot;, sans-serif; font-size: 13px; font-weight: 400; text-align: left; text-wrap-mode: wrap; background-color: rgb(24, 24, 24);&quot;&gt;olist_products_dataset&lt;/span&gt;" style="shape=table;startSize=30;container=1;collapsible=1;childLayout=tableLayout;fixedRows=1;rowLines=0;fontStyle=1;align=center;resizeLast=1;html=1;" vertex="1" parent="1">
          <mxGeometry x="250" y="400" width="190" height="90" as="geometry" />
        </mxCell>
        <mxCell id="tdDN1sZcC-09edrLyPi8-82" value="" style="shape=tableRow;horizontal=0;startSize=0;swimlaneHead=0;swimlaneBody=0;fillColor=none;collapsible=0;dropTarget=0;points=[[0,0.5],[1,0.5]];portConstraint=eastwest;top=0;left=0;right=0;bottom=1;" vertex="1" parent="tdDN1sZcC-09edrLyPi8-81">
          <mxGeometry y="30" width="190" height="30" as="geometry" />
        </mxCell>
        <mxCell id="tdDN1sZcC-09edrLyPi8-83" value="PK" style="shape=partialRectangle;connectable=0;fillColor=none;top=0;left=0;bottom=0;right=0;fontStyle=1;overflow=hidden;whiteSpace=wrap;html=1;" vertex="1" parent="tdDN1sZcC-09edrLyPi8-82">
          <mxGeometry width="30" height="30" as="geometry">
            <mxRectangle width="30" height="30" as="alternateBounds" />
          </mxGeometry>
        </mxCell>
        <mxCell id="tdDN1sZcC-09edrLyPi8-84" value="&lt;span style=&quot;color: rgb(204, 204, 204); font-family: &amp;quot;Segoe WPC&amp;quot;, &amp;quot;Segoe UI&amp;quot;, sans-serif; font-size: 13px; font-weight: 400; background-color: rgb(24, 24, 24);&quot;&gt;product_id&lt;/span&gt;" style="shape=partialRectangle;connectable=0;fillColor=none;top=0;left=0;bottom=0;right=0;align=left;spacingLeft=6;fontStyle=5;overflow=hidden;whiteSpace=wrap;html=1;" vertex="1" parent="tdDN1sZcC-09edrLyPi8-82">
          <mxGeometry x="30" width="160" height="30" as="geometry">
            <mxRectangle width="160" height="30" as="alternateBounds" />
          </mxGeometry>
        </mxCell>
        <mxCell id="tdDN1sZcC-09edrLyPi8-85" value="" style="shape=tableRow;horizontal=0;startSize=0;swimlaneHead=0;swimlaneBody=0;fillColor=none;collapsible=0;dropTarget=0;points=[[0,0.5],[1,0.5]];portConstraint=eastwest;top=0;left=0;right=0;bottom=0;" vertex="1" parent="tdDN1sZcC-09edrLyPi8-81">
          <mxGeometry y="60" width="190" height="30" as="geometry" />
        </mxCell>
        <mxCell id="tdDN1sZcC-09edrLyPi8-86" value="" style="shape=partialRectangle;connectable=0;fillColor=none;top=0;left=0;bottom=0;right=0;editable=1;overflow=hidden;whiteSpace=wrap;html=1;" vertex="1" parent="tdDN1sZcC-09edrLyPi8-85">
          <mxGeometry width="30" height="30" as="geometry">
            <mxRectangle width="30" height="30" as="alternateBounds" />
          </mxGeometry>
        </mxCell>
        <mxCell id="tdDN1sZcC-09edrLyPi8-87" value="&lt;span style=&quot;color: rgb(204, 204, 204); font-family: &amp;quot;Segoe WPC&amp;quot;, &amp;quot;Segoe UI&amp;quot;, sans-serif; font-size: 13px; background-color: rgb(24, 24, 24);&quot;&gt;product_category_name&lt;/span&gt;" style="shape=partialRectangle;connectable=0;fillColor=none;top=0;left=0;bottom=0;right=0;align=left;spacingLeft=6;overflow=hidden;whiteSpace=wrap;html=1;" vertex="1" parent="tdDN1sZcC-09edrLyPi8-85">
          <mxGeometry x="30" width="160" height="30" as="geometry">
            <mxRectangle width="160" height="30" as="alternateBounds" />
          </mxGeometry>
        </mxCell>
        <mxCell id="tdDN1sZcC-09edrLyPi8-94" value="&lt;span style=&quot;color: rgb(204, 204, 204); font-family: &amp;quot;Segoe WPC&amp;quot;, &amp;quot;Segoe UI&amp;quot;, sans-serif; font-size: 13px; font-weight: 400; text-align: left; text-wrap-mode: wrap; background-color: rgb(24, 24, 24);&quot;&gt;olist_sellers_dataset&lt;/span&gt;" style="shape=table;startSize=30;container=1;collapsible=1;childLayout=tableLayout;fixedRows=1;rowLines=0;fontStyle=1;align=center;resizeLast=1;html=1;" vertex="1" parent="1">
          <mxGeometry x="610" y="400" width="180" height="90" as="geometry" />
        </mxCell>
        <mxCell id="tdDN1sZcC-09edrLyPi8-95" value="" style="shape=tableRow;horizontal=0;startSize=0;swimlaneHead=0;swimlaneBody=0;fillColor=none;collapsible=0;dropTarget=0;points=[[0,0.5],[1,0.5]];portConstraint=eastwest;top=0;left=0;right=0;bottom=1;" vertex="1" parent="tdDN1sZcC-09edrLyPi8-94">
          <mxGeometry y="30" width="180" height="30" as="geometry" />
        </mxCell>
        <mxCell id="tdDN1sZcC-09edrLyPi8-96" value="PK" style="shape=partialRectangle;connectable=0;fillColor=none;top=0;left=0;bottom=0;right=0;fontStyle=1;overflow=hidden;whiteSpace=wrap;html=1;" vertex="1" parent="tdDN1sZcC-09edrLyPi8-95">
          <mxGeometry width="30" height="30" as="geometry">
            <mxRectangle width="30" height="30" as="alternateBounds" />
          </mxGeometry>
        </mxCell>
        <mxCell id="tdDN1sZcC-09edrLyPi8-97" value="&lt;span style=&quot;color: rgb(204, 204, 204); font-family: &amp;quot;Segoe WPC&amp;quot;, &amp;quot;Segoe UI&amp;quot;, sans-serif; font-size: 13px; font-weight: 400; background-color: rgb(24, 24, 24);&quot;&gt;seller_id&lt;/span&gt;" style="shape=partialRectangle;connectable=0;fillColor=none;top=0;left=0;bottom=0;right=0;align=left;spacingLeft=6;fontStyle=5;overflow=hidden;whiteSpace=wrap;html=1;" vertex="1" parent="tdDN1sZcC-09edrLyPi8-95">
          <mxGeometry x="30" width="150" height="30" as="geometry">
            <mxRectangle width="150" height="30" as="alternateBounds" />
          </mxGeometry>
        </mxCell>
        <mxCell id="tdDN1sZcC-09edrLyPi8-98" value="" style="shape=tableRow;horizontal=0;startSize=0;swimlaneHead=0;swimlaneBody=0;fillColor=none;collapsible=0;dropTarget=0;points=[[0,0.5],[1,0.5]];portConstraint=eastwest;top=0;left=0;right=0;bottom=0;" vertex="1" parent="tdDN1sZcC-09edrLyPi8-94">
          <mxGeometry y="60" width="180" height="30" as="geometry" />
        </mxCell>
        <mxCell id="tdDN1sZcC-09edrLyPi8-99" value="" style="shape=partialRectangle;connectable=0;fillColor=none;top=0;left=0;bottom=0;right=0;editable=1;overflow=hidden;whiteSpace=wrap;html=1;" vertex="1" parent="tdDN1sZcC-09edrLyPi8-98">
          <mxGeometry width="30" height="30" as="geometry">
            <mxRectangle width="30" height="30" as="alternateBounds" />
          </mxGeometry>
        </mxCell>
        <mxCell id="tdDN1sZcC-09edrLyPi8-100" value="&lt;span style=&quot;color: rgb(204, 204, 204); font-family: &amp;quot;Segoe WPC&amp;quot;, &amp;quot;Segoe UI&amp;quot;, sans-serif; font-size: 13px; background-color: rgb(24, 24, 24);&quot;&gt;seller_zip_code_prefix&lt;/span&gt;" style="shape=partialRectangle;connectable=0;fillColor=none;top=0;left=0;bottom=0;right=0;align=left;spacingLeft=6;overflow=hidden;whiteSpace=wrap;html=1;" vertex="1" parent="tdDN1sZcC-09edrLyPi8-98">
          <mxGeometry x="30" width="150" height="30" as="geometry">
            <mxRectangle width="150" height="30" as="alternateBounds" />
          </mxGeometry>
        </mxCell>
        <mxCell id="tdDN1sZcC-09edrLyPi8-107" value="&lt;span style=&quot;color: rgb(204, 204, 204); font-family: &amp;quot;Segoe WPC&amp;quot;, &amp;quot;Segoe UI&amp;quot;, sans-serif; font-size: 13px; font-weight: 400; text-align: left; text-wrap-mode: wrap; background-color: rgb(24, 24, 24);&quot;&gt;olist_geolocation_dataset&lt;/span&gt;" style="shape=table;startSize=30;container=1;collapsible=1;childLayout=tableLayout;fixedRows=1;rowLines=0;fontStyle=1;align=center;resizeLast=1;html=1;" vertex="1" parent="1">
          <mxGeometry x="555" y="520" width="235" height="60" as="geometry" />
        </mxCell>
        <mxCell id="tdDN1sZcC-09edrLyPi8-108" value="" style="shape=tableRow;horizontal=0;startSize=0;swimlaneHead=0;swimlaneBody=0;fillColor=none;collapsible=0;dropTarget=0;points=[[0,0.5],[1,0.5]];portConstraint=eastwest;top=0;left=0;right=0;bottom=1;" vertex="1" parent="tdDN1sZcC-09edrLyPi8-107">
          <mxGeometry y="30" width="235" height="30" as="geometry" />
        </mxCell>
        <mxCell id="tdDN1sZcC-09edrLyPi8-109" value="PK" style="shape=partialRectangle;connectable=0;fillColor=none;top=0;left=0;bottom=0;right=0;fontStyle=1;overflow=hidden;whiteSpace=wrap;html=1;" vertex="1" parent="tdDN1sZcC-09edrLyPi8-108">
          <mxGeometry width="30" height="30" as="geometry">
            <mxRectangle width="30" height="30" as="alternateBounds" />
          </mxGeometry>
        </mxCell>
        <mxCell id="tdDN1sZcC-09edrLyPi8-110" value="&lt;span style=&quot;color: rgb(204, 204, 204); font-family: &amp;quot;Segoe WPC&amp;quot;, &amp;quot;Segoe UI&amp;quot;, sans-serif; font-size: 13px; font-weight: 400; background-color: rgb(24, 24, 24);&quot;&gt;geolocation_zip_code_prefix&lt;/span&gt;" style="shape=partialRectangle;connectable=0;fillColor=none;top=0;left=0;bottom=0;right=0;align=left;spacingLeft=6;fontStyle=5;overflow=hidden;whiteSpace=wrap;html=1;" vertex="1" parent="tdDN1sZcC-09edrLyPi8-108">
          <mxGeometry x="30" width="205" height="30" as="geometry">
            <mxRectangle width="205" height="30" as="alternateBounds" />
          </mxGeometry>
        </mxCell>
        <mxCell id="tdDN1sZcC-09edrLyPi8-120" value="&lt;span style=&quot;color: rgb(204, 204, 204); font-family: &amp;quot;Segoe WPC&amp;quot;, &amp;quot;Segoe UI&amp;quot;, sans-serif; font-size: 13px; font-weight: 400; text-align: left; text-wrap-mode: wrap; background-color: rgb(24, 24, 24);&quot;&gt;product_category_name_translation&lt;/span&gt;" style="shape=table;startSize=30;container=1;collapsible=1;childLayout=tableLayout;fixedRows=1;rowLines=0;fontStyle=1;align=center;resizeLast=1;html=1;" vertex="1" parent="1">
          <mxGeometry x="90" y="510" width="260" height="60" as="geometry" />
        </mxCell>
        <mxCell id="tdDN1sZcC-09edrLyPi8-121" value="" style="shape=tableRow;horizontal=0;startSize=0;swimlaneHead=0;swimlaneBody=0;fillColor=none;collapsible=0;dropTarget=0;points=[[0,0.5],[1,0.5]];portConstraint=eastwest;top=0;left=0;right=0;bottom=1;" vertex="1" parent="tdDN1sZcC-09edrLyPi8-120">
          <mxGeometry y="30" width="260" height="30" as="geometry" />
        </mxCell>
        <mxCell id="tdDN1sZcC-09edrLyPi8-122" value="PK" style="shape=partialRectangle;connectable=0;fillColor=none;top=0;left=0;bottom=0;right=0;fontStyle=1;overflow=hidden;whiteSpace=wrap;html=1;" vertex="1" parent="tdDN1sZcC-09edrLyPi8-121">
          <mxGeometry width="30" height="30" as="geometry">
            <mxRectangle width="30" height="30" as="alternateBounds" />
          </mxGeometry>
        </mxCell>
        <mxCell id="tdDN1sZcC-09edrLyPi8-123" value="&lt;span style=&quot;color: rgb(204, 204, 204); font-family: &amp;quot;Segoe WPC&amp;quot;, &amp;quot;Segoe UI&amp;quot;, sans-serif; font-size: 13px; font-weight: 400; background-color: rgb(24, 24, 24);&quot;&gt;product_category_name&lt;/span&gt;" style="shape=partialRectangle;connectable=0;fillColor=none;top=0;left=0;bottom=0;right=0;align=left;spacingLeft=6;fontStyle=5;overflow=hidden;whiteSpace=wrap;html=1;" vertex="1" parent="tdDN1sZcC-09edrLyPi8-121">
          <mxGeometry x="30" width="230" height="30" as="geometry">
            <mxRectangle width="230" height="30" as="alternateBounds" />
          </mxGeometry>
        </mxCell>
        <mxCell id="tdDN1sZcC-09edrLyPi8-133" style="edgeStyle=orthogonalEdgeStyle;rounded=0;orthogonalLoop=1;jettySize=auto;html=1;exitX=1;exitY=0.5;exitDx=0;exitDy=0;entryX=1;entryY=0.5;entryDx=0;entryDy=0;" edge="1" parent="1" source="tdDN1sZcC-09edrLyPi8-14" target="tdDN1sZcC-09edrLyPi8-24">
          <mxGeometry relative="1" as="geometry" />
        </mxCell>
        <mxCell id="tdDN1sZcC-09edrLyPi8-136" style="edgeStyle=orthogonalEdgeStyle;rounded=0;orthogonalLoop=1;jettySize=auto;html=1;exitX=0;exitY=0.5;exitDx=0;exitDy=0;entryX=0;entryY=0.5;entryDx=0;entryDy=0;" edge="1" parent="1" source="tdDN1sZcC-09edrLyPi8-47" target="tdDN1sZcC-09edrLyPi8-94">
          <mxGeometry relative="1" as="geometry">
            <Array as="points">
              <mxPoint x="500" y="375" />
              <mxPoint x="500" y="445" />
            </Array>
          </mxGeometry>
        </mxCell>
        <mxCell id="tdDN1sZcC-09edrLyPi8-137" style="edgeStyle=orthogonalEdgeStyle;rounded=0;orthogonalLoop=1;jettySize=auto;html=1;exitX=0;exitY=0.5;exitDx=0;exitDy=0;entryX=1;entryY=0.5;entryDx=0;entryDy=0;" edge="1" parent="1" source="tdDN1sZcC-09edrLyPi8-41" target="tdDN1sZcC-09edrLyPi8-11">
          <mxGeometry relative="1" as="geometry" />
        </mxCell>
        <mxCell id="tdDN1sZcC-09edrLyPi8-145" style="edgeStyle=orthogonalEdgeStyle;rounded=0;orthogonalLoop=1;jettySize=auto;html=1;exitX=0;exitY=0.5;exitDx=0;exitDy=0;entryX=0;entryY=0.5;entryDx=0;entryDy=0;" edge="1" parent="1" source="tdDN1sZcC-09edrLyPi8-44" target="tdDN1sZcC-09edrLyPi8-82">
          <mxGeometry relative="1" as="geometry" />
        </mxCell>
        <mxCell id="tdDN1sZcC-09edrLyPi8-146" style="edgeStyle=orthogonalEdgeStyle;rounded=0;orthogonalLoop=1;jettySize=auto;html=1;exitX=1;exitY=0.5;exitDx=0;exitDy=0;entryX=1;entryY=0.5;entryDx=0;entryDy=0;" edge="1" parent="1" source="tdDN1sZcC-09edrLyPi8-85" target="tdDN1sZcC-09edrLyPi8-121">
          <mxGeometry relative="1" as="geometry" />
        </mxCell>
        <mxCell id="tdDN1sZcC-09edrLyPi8-147" style="edgeStyle=orthogonalEdgeStyle;rounded=0;orthogonalLoop=1;jettySize=auto;html=1;entryX=1;entryY=0.5;entryDx=0;entryDy=0;" edge="1" parent="1" source="tdDN1sZcC-09edrLyPi8-59" target="tdDN1sZcC-09edrLyPi8-11">
          <mxGeometry relative="1" as="geometry" />
        </mxCell>
        <mxCell id="tdDN1sZcC-09edrLyPi8-148" style="edgeStyle=orthogonalEdgeStyle;rounded=0;orthogonalLoop=1;jettySize=auto;html=1;entryX=1;entryY=0.5;entryDx=0;entryDy=0;" edge="1" parent="1" source="tdDN1sZcC-09edrLyPi8-72" target="tdDN1sZcC-09edrLyPi8-11">
          <mxGeometry relative="1" as="geometry">
            <Array as="points">
              <mxPoint x="460" y="215" />
              <mxPoint x="460" y="165" />
            </Array>
          </mxGeometry>
        </mxCell>
        <mxCell id="tdDN1sZcC-09edrLyPi8-149" style="edgeStyle=orthogonalEdgeStyle;rounded=0;orthogonalLoop=1;jettySize=auto;html=1;exitX=0;exitY=0.5;exitDx=0;exitDy=0;entryX=0.021;entryY=0.733;entryDx=0;entryDy=0;entryPerimeter=0;" edge="1" parent="1" source="tdDN1sZcC-09edrLyPi8-98" target="tdDN1sZcC-09edrLyPi8-108">
          <mxGeometry relative="1" as="geometry">
            <Array as="points">
              <mxPoint x="500" y="475" />
              <mxPoint x="500" y="572" />
            </Array>
          </mxGeometry>
        </mxCell>
      </root>
    </mxGraphModel>
  </diagram>
</mxfile>
